<svg width="28" height="28" viewBox="0 0 28 28" fill="none" xmlns="http://www.w3.org/2000/svg">
<path d="M6.24385 27.9311H0.524635V9.51316H6.24385V27.9311ZM3.38116 7.00079C1.55234 7.00079 0.0689697 5.48597 0.0689697 3.65711C0.0689697 2.77865 0.417932 1.93616 1.03909 1.31499C1.66024 0.693818 2.50271 0.344849 3.38116 0.344849C4.25961 0.344849 5.10208 0.693818 5.72324 1.31499C6.34439 1.93616 6.69335 2.77865 6.69335 3.65711C6.69335 5.48597 5.20936 7.00079 3.38116 7.00079ZM27.649 27.9311H21.9421V18.9653C21.9421 16.8286 21.899 14.0884 18.9686 14.0884C15.9951 14.0884 15.5394 16.4099 15.5394 18.8114V27.9311H9.82636V9.51316H15.3116V12.0255H15.3916C16.1552 10.5785 18.0203 9.05132 20.803 9.05132C26.5911 9.05132 27.6552 12.863 27.6552 17.8138V27.9311H27.649Z" fill="white"/>
</svg>
