<svg width="30" height="24" viewBox="0 0 30 24" fill="none" xmlns="http://www.w3.org/2000/svg">
<path d="M26.162 6.45591C26.1801 6.71048 26.1801 6.9651 26.1801 7.21967C26.1801 14.9843 20.3135 23.931 9.59122 23.931C6.28787 23.931 3.21923 22.9672 0.637924 21.2943C1.10727 21.3488 1.5585 21.367 2.0459 21.367C4.77155 21.367 7.28068 20.4397 9.28435 18.8576C6.7211 18.8031 4.57303 17.1119 3.83292 14.7843C4.19397 14.8388 4.55497 14.8752 4.93408 14.8752C5.45754 14.8752 5.98105 14.8025 6.4684 14.6752C3.79686 14.1297 1.79314 11.7657 1.79314 8.9108V8.83809C2.5693 9.27451 3.47193 9.54727 4.42856 9.5836C2.85812 8.52889 1.82926 6.72867 1.82926 4.69202C1.82926 3.60098 2.11802 2.60085 2.62348 1.728C5.4936 5.29211 9.80781 7.61966 14.6454 7.87428C14.5552 7.43785 14.501 6.98329 14.501 6.52868C14.501 3.29184 17.1004 0.655151 20.3315 0.655151C22.0102 0.655151 23.5265 1.36434 24.5915 2.50995C25.9092 2.25538 27.1728 1.76438 28.292 1.09158C27.8587 2.45543 26.9381 3.60104 25.7287 4.32836C26.9021 4.20113 28.0393 3.87374 29.0862 3.41918C28.2921 4.58293 27.2992 5.61939 26.162 6.45591V6.45591Z" fill="white"/>
</svg>
