<svg width="32" height="22" viewBox="0 0 32 22" fill="none" xmlns="http://www.w3.org/2000/svg">
<path d="M30.8778 3.59624C30.5258 2.2689 29.4888 1.22353 28.1721 0.868765C25.7855 0.224121 16.2155 0.224121 16.2155 0.224121C16.2155 0.224121 6.6456 0.224121 4.25895 0.868765C2.94226 1.22358 1.90525 2.2689 1.55328 3.59624C0.913795 6.00212 0.913795 11.0218 0.913795 11.0218C0.913795 11.0218 0.913795 16.0414 1.55328 18.4473C1.90525 19.7746 2.94226 20.7764 4.25895 21.1312C6.6456 21.7758 16.2155 21.7758 16.2155 21.7758C16.2155 21.7758 25.7854 21.7758 28.1721 21.1312C29.4888 20.7764 30.5258 19.7746 30.8778 18.4473C31.5172 16.0414 31.5172 11.0218 31.5172 11.0218C31.5172 11.0218 31.5172 6.00212 30.8778 3.59624V3.59624ZM13.0856 15.5792V6.4643L21.0842 11.0219L13.0856 15.5792V15.5792Z" fill="white"/>
</svg>
