<svg width="22" height="22" viewBox="0 0 22 22" fill="none" xmlns="http://www.w3.org/2000/svg">
<path d="M14.5452 15.3226L7.77663 15.9363L1.55481 7.60339" stroke="#1E1E1E" stroke-miterlimit="10"/>
<path d="M4.9845 18.7468L7.77658 15.9742L10.7566 20.6742" stroke="#1E1E1E" stroke-miterlimit="10"/>
<path d="M1.44775 13.813L3.76494 10.5542L12.2466 5.39941L14.5451 15.3227L10.7509 20.673" stroke="#1E1E1E" stroke-miterlimit="10"/>
<path d="M3.49756 4.94458L12.2467 5.39941L18.6271 11.0848L14.5452 15.3227L16.5601 18.7468" stroke="#1E1E1E" stroke-miterlimit="10"/>
<path d="M16.6888 2.8186L12.2466 5.39939L10.9476 0.851074" stroke="#1E1E1E" stroke-miterlimit="10"/>
<path d="M20.2042 7.85852L18.7035 11.0848L20.1171 13.9654" stroke="#1E1E1E" stroke-miterlimit="10"/>
<path d="M10.8784 1.15239L16.5649 3.0642L20.0386 7.96842L19.9691 13.9934L16.3827 18.8347L10.6522 20.6434L4.96563 18.7316L1.49196 13.8274L1.56149 7.80241L5.14788 2.9611L10.8784 1.15239ZM10.8814 0.833252L4.96067 2.70223L1.25737 7.70159L1.18555 13.9218L4.77308 18.9871L10.6495 20.9626L16.5703 19.0936L20.2736 14.0942L20.3454 7.87442L16.7575 2.80911L10.8814 0.833252Z" fill="#1E1E1E" stroke="#1E1E1E"/>
</svg>
