<svg width="21" height="22" viewBox="0 0 21 22" fill="none" xmlns="http://www.w3.org/2000/svg">
<path d="M13.9469 15.2969L7.35822 15.8988L1.30127 7.72864" stroke="#1E1E1E" stroke-miterlimit="10"/>
<path d="M4.64014 18.6519L7.35814 15.9359L10.2583 20.543" stroke="#1E1E1E" stroke-miterlimit="10"/>
<path d="M1.20081 13.8181L3.45403 10.6229L11.7084 5.56995L13.9468 15.2969L10.2546 20.543" stroke="#1E1E1E" stroke-miterlimit="10"/>
<path d="M15.9063 18.6519L13.9468 15.2969L17.9178 11.1431L11.7084 5.56995L3.2334 5.18738L3.454 10.6229" stroke="#1E1E1E" stroke-miterlimit="10"/>
<path d="M16.0327 3.03974L11.7084 5.56993L10.4442 1.11145" stroke="#1E1E1E" stroke-miterlimit="10"/>
<path d="M19.4534 7.9812L17.9922 11.143L19.3679 13.9667" stroke="#1E1E1E" stroke-miterlimit="10"/>
<path d="M10.4331 1.31209L15.9658 3.18837L19.3493 7.9961L19.2824 13.9036L15.791 18.6482L10.2137 20.4204L4.68102 18.5478L1.29746 13.7401L1.36438 7.83263L4.85577 3.08806L10.4331 1.31209ZM10.4368 1L4.67358 2.83169L1.07065 7.73231L1 13.8293L4.49139 18.7931L10.21 20.7288L15.9732 18.8971L19.5761 13.9965L19.6468 7.8995L16.1554 2.93572L10.4368 1Z" fill="#1E1E1E" stroke="black"/>
</svg>
