<svg xmlns="http://www.w3.org/2000/svg" width="92" height="47" viewBox="0 0 92 47">
    <path fill="#EE2737" fill-rule="evenodd" d="M57.067 14.675H31.341V0h-9.794v14.675h-3.46C7.378 14.675 0 21.528 0 30.838S7.378 47 18.087 47H31.34V23.726h7.966V47h9.795V23.726h7.965V47h9.795V23.726h7.966V47h9.794V23.726h6.725v-9.05h-6.725v-1.94c0-2.715.98-3.685 3.721-3.685H92V0h-6.138c-6.986 0-11.034 4.008-11.034 10.926v3.75h-7.966v-1.94c0-2.715.979-3.685 3.722-3.685h2.089V0h-4.57c-6.987 0-11.036 4.008-11.036 10.926v3.75zm-17.76-4.978h9.795V0h-9.795v9.697zM21.547 37.95H17.76c-4.766 0-7.835-2.844-7.835-7.111 0-4.267 3.069-7.112 7.835-7.112h3.787V37.95z"/>
</svg>