<svg id="black" xmlns="http://www.w3.org/2000/svg" viewBox="0 0 541.5 137.7"><defs><style>.cls-1{fill:none;}.cls-2{isolation:isolate;font-size:18.55px;font-family:ArialMT, Arial;}</style></defs><title>iQmetrix_horizontal_Black</title><path d="M75.9,59.8A12.6,12.6,0,0,1,85.2,56a13,13,0,0,1,9.3,3.8,12.7,12.7,0,0,1,3.9,9.3A13.14,13.14,0,0,1,85.2,82.2a13,13,0,0,1-9.3-3.8,12.3,12.3,0,0,1-3.8-9.3A12.67,12.67,0,0,1,75.9,59.8ZM60.4,48.1a31.39,31.39,0,0,0-7.6,21A31,31,0,0,0,60.4,90a16.24,16.24,0,0,0,1.8,2,31.34,31.34,0,0,0,23,9.5,30.86,30.86,0,0,0,17.2-4.9l-7.1-7,13.5-13.4,6,6a31.66,31.66,0,0,0,2.7-13.1A31.18,31.18,0,0,0,108,46.2a30.74,30.74,0,0,0-22.8-9.5,31.56,31.56,0,0,0-23,9.5C61.6,46.8,61,47.4,60.4,48.1ZM49.8,104.4C40,94.7,35.2,82.9,35.2,69.1A48.78,48.78,0,0,1,49.8,33.6a47.92,47.92,0,0,1,10.7-8.1,48.5,48.5,0,0,1,24.8-6.4,48.61,48.61,0,0,1,35.5,14.6,48.48,48.48,0,0,1,14.7,35.5,48.22,48.22,0,0,1-7.3,26.3l11.2,11.2L126,120.1l-10.7-10.7a48.34,48.34,0,0,1-29.9,9.8,48.5,48.5,0,0,1-24.8-6.4A47.67,47.67,0,0,1,49.8,104.4Z"/><rect class="cls-1" x="480.6" y="54.1" width="26.8" height="29.1"/><text class="cls-2" transform="translate(481.06 59.63)">®</text><path d="M476.9,67.4h-4.7l-6.3,9.8,11.7,18.5H464l-4.6-8.4c-.4-.9-.6-1.5-.8-1.8h-.3c-.1.3-.4.9-.8,1.8L453,95.7H439.3L451,77.1,439,58.2h14.1l4.1,8.4a24.44,24.44,0,0,0,1.2,2.4h.3c.1-.3.5-1.1,1-2.4l4-8.4h13.2v9.2Z"/><polygon points="166.5 57.3 184.3 57.3 184.3 94.8 171.6 94.8 171.6 66.4 166.5 66.4 166.5 57.3"/><rect x="171.7" y="42.9" width="12.3" height="9.8"/><path d="M415.4,70.3a16.09,16.09,0,0,0-2.6-.2,11.44,11.44,0,0,0-5.3,1.2c-1.9.8-3.4,2.5-4.4,5.3a16.24,16.24,0,0,0-.7,4.8V95.6H389.8V58.3h12.3v6.4a21.35,21.35,0,0,1-.2,2.5h.2a12.52,12.52,0,0,1,4.4-6.6,11.82,11.82,0,0,1,7.6-2.8,10.3,10.3,0,0,0,1.3.1V70.3Z"/><rect x="421" y="58.3" width="12.8" height="37.4"/><rect x="421.1" y="43.8" width="12.5" height="10"/><path d="M382.1,58.8v9.8h-7.8V80q0,4.8,6.6,4.8a8.12,8.12,0,0,0,1.7-.1V95.5a31.14,31.14,0,0,1-3.4.2c-11.7,0-17.5-4.7-17.5-14v-13H357V58.9h5.1V48.1h12.2V58.8Z"/><path d="M352.9,77.9a18.48,18.48,0,0,0,.1-2.3,19.21,19.21,0,0,0-4.4-12.9c-3.1-3.3-7.4-5.1-13-5.3-6.1.2-10.8,2.1-14.3,5.7A20.64,20.64,0,0,0,316.2,77a19,19,0,0,0,5.3,13.3c3.5,3.9,8.6,6,15.3,6.1q7.5-.3,11.7-2.7a27.54,27.54,0,0,0,4.3-2.7L348,82.2q0,.3-3,1.8a14.78,14.78,0,0,1-7.2,1.9,8.85,8.85,0,0,1-5.4-1.6,7.5,7.5,0,0,1-3.3-5h23.6C352.9,79.4,352.9,78.9,352.9,77.9Zm-23.4-5.8a7.82,7.82,0,0,1,1.8-3.5,5.65,5.65,0,0,1,4.1-1.6c3.2.5,4.9,2.2,5,5.2l-10.9-.1Z"/><path d="M310.4,71.7v24H297.7v-22c.2-3-.8-4.5-3-4.7-3.8.3-6.1,2.6-6.7,7a19.41,19.41,0,0,0-.4,4.4V95.7H275v-22c.3-3-.7-4.5-2.9-4.7-3.7.2-5.9,2.4-6.7,6.7a22.88,22.88,0,0,0-.4,4.7V95.7H252.3V58.3h12.3v3.3a11.35,11.35,0,0,1-.3,2.4h.3a15,15,0,0,1,3.9-4.2,12.93,12.93,0,0,1,7-2.3c4.9,0,8.4,2.1,10.5,6.4h.2a12.78,12.78,0,0,1,4.6-4.3,13.86,13.86,0,0,1,7.2-2.1,11.31,11.31,0,0,1,8.7,3.3C309.2,62.8,310.3,66.4,310.4,71.7Z"/><path d="M239.5,84.8a26.1,26.1,0,0,0,5.2-15.3q-.15-11.4-7.5-18.9c-5.1-4.9-11.6-7.5-19.5-7.7-7.9.2-14.4,2.7-19.5,7.7a24.81,24.81,0,0,0-6.7,11.9,29.51,29.51,0,0,0-1,7,33.84,33.84,0,0,0,1,7.3,25.45,25.45,0,0,0,6.7,11.8c5.1,5.1,11.5,7.8,19.5,7.9a25.61,25.61,0,0,0,14.9-4.3l5.3,5,7.2-8Zm-9.4-8.7L225,71.2l-7.1,7.9,5.3,4.7a13.63,13.63,0,0,1-15.4-3.3,15.6,15.6,0,0,1-4.1-11A14.9,14.9,0,0,1,207.8,59a13.55,13.55,0,0,1,19.8,0,14.51,14.51,0,0,1,3.9,10.5A18.57,18.57,0,0,1,230.1,76.1Z"/></svg>