<?xml version="1.0" encoding="utf-8"?>
<!-- Generator: Adobe Illustrator 24.0.2, SVG Export Plug-In . SVG Version: 6.00 Build 0)  -->
<svg version="1.1" id="Layer_1" xmlns="http://www.w3.org/2000/svg" xmlns:xlink="http://www.w3.org/1999/xlink" x="0px"
     y="0px"
     viewBox="0 0 272.2 61.5" style="enable-background:new 0 0 272.2 61.5;" xml:space="preserve">
<style type="text/css">
	.st0{fill:#DB1D2F;}
	.st1{opacity:0.8;fill:#FFFFFF;}
	.st2{fill:#FFFFFF;}
</style>
  <g>
	<path class="st0" d="M231,61.5H4.7c-3.2,0-5.5-3.6-4.5-7.1l9.6-34.8c0.6-2.3,2.5-3.9,4.9-4L272.2,0l-32.7,55.6
		C237,59.8,234.6,61.5,231,61.5z"/>
    <g>
		<path class="st1" d="M144.2,46.1c-1,1.1-1.7,2.4-2.1,3.8l-1.2,4.1c13.8-14,21.5-19.1,41.5-26.3l3.8-12.5
			C166.2,23.7,158.2,30.4,144.2,46.1z"/>
      <g>
			<g>
				<g>
					<path class="st2" d="M31.9,27.2h6.5l-2.2,7.6h0.3l17.4-7.6h8.8l-19.5,8.3l15.5,9.7h-9.2l-13.4-8.8h-0.4l-2.5,8.8h-6.5
						L31.9,27.2z"/>
          <path class="st2" d="M65.5,27.2H72l-5.2,18h-6.5L65.5,27.2z"/>
          <path class="st2" d="M77.3,27.3h6.5l-0.8,2.9l0.5-0.1c2.3-1.9,7.3-3.2,12.9-3.2c7.1,0,12.3,2,10.9,6.7l-3.3,11.7l-6.6-0.1
						l3-10.6c1-3.4-2.5-4.6-6.9-4.6c-5.8,0-11,1.9-12.2,6.1l-2.8,9.1h-6.5L77.3,27.3z"/>
          <path class="st2" d="M113.7,29.5c4.4-1.8,10.2-2.6,15.3-2.6c10.8,0,14.2,2.8,13.3,5.9l-2.6,9.1c-0.4,1.2-0.5,2.3-0.6,3.3
						l-5.9,0.1c0.1-0.9,0.3-1.8,0.5-2.7h-0.2c-3.7,2.3-8.2,3.2-13.7,3.2c-6.8,0-12.1-1.9-11.1-5.4c1.3-4.6,10.8-6.2,21.9-6.2h5.1
						l0.2-0.8c0.5-1.9-1.7-3.8-7.6-3.8c-5.3,0-8.2,1.1-10.9,2L113.7,29.5z M131.3,36.6c-6.5,0-14.7,0.6-15.6,3.4
						c-0.5,2,2.2,2.9,7,2.9c7.7,0,11.2-2.8,11.9-5.2l0.3-1.1H131.3z"/>
          <path class="st2" d="M185.8,27.2h6.5l-5.2,18h-6.5L185.8,27.2z"/>
          <path class="st2" d="M215,31.1c-1.1-1-3.5-1.4-6-1.4c-3,0-6.2,0.7-6.7,2.3c-1,3.6,17,1.6,15.1,8c-1.1,3.9-7.9,5.7-15.1,5.7
						c-4.6,0-8.8-0.7-11.3-2.4l5.6-2.3c1.2,1.2,3.8,1.9,6.7,1.9c3,0,6.7-0.8,7.1-2.5c1.1-3.9-16.9-1.7-15.1-8.1
						c1-3.7,8.3-5.4,15.1-5.4c3.8,0,7.5,0.5,10,1.9L215,31.1z"/>
				</g>
        <polygon class="st2" points="145.5,27.2 154,27.2 177.6,45.2 167.4,45.2 				"/>
			</g>
        <g>
				<path class="st2" d="M225.6,25.4c1.9,0,3.5,1.6,3.5,3.5c0,1.9-1.6,3.5-3.5,3.5c-1.9,0-3.5-1.6-3.5-3.5
					C222.1,27,223.7,25.4,225.6,25.4z M225.6,31.8c1.6,0,2.9-1.3,2.9-2.9c0-1.6-1.3-2.9-2.9-2.9c-1.6,0-2.9,1.3-2.9,2.9
					C222.7,30.5,224,31.8,225.6,31.8z M224.3,26.9h1.6c1,0,1.4,0.4,1.4,1.2c0,0.7-0.4,1-1,1.1l1.1,1.7h-0.8l-1-1.6H225v1.6h-0.7
					V26.9z M225,28.7h0.5c0.5,0,1,0,1-0.6c0-0.5-0.5-0.6-1-0.6H225V28.7z"/>
			</g>
		</g>
	</g>
</g>
</svg>
