<?xml version="1.0" encoding="utf-8"?>
<!-- Generator: Adobe Illustrator 15.1.0, SVG Export Plug-In . SVG Version: 6.00 Build 0)  -->
<!DOCTYPE svg PUBLIC "-//W3C//DTD SVG 1.1//EN" "http://www.w3.org/Graphics/SVG/1.1/DTD/svg11.dtd">
<svg version="1.1" id="Nokia_Logo" xmlns="http://www.w3.org/2000/svg" xmlns:xlink="http://www.w3.org/1999/xlink" x="0px" y="0px"
	 width="123.643px" height="52.057px" viewBox="0 0 123.643 52.057" enable-background="new 0 0 123.643 52.057"
	 xml:space="preserve">
<g>
	<rect fill="none" width="123.647" height="52.044"/>
	<g>
		<g>
			<g>
				<path fill="#124191" d="M34.506,29.344l-8.124-10.043h-7.081v13.454h4.09V22.54l8.271,10.216h6.939V19.301h-4.096V29.344z
					 M52.72,19.079h-6.995c-2.439,0-3.7,0.28-4.57,1.202c-0.558,0.618-0.91,1.263-0.91,3.131v5.187c0,1.869,0.352,2.514,0.91,3.131
					c0.871,0.928,2.131,1.205,4.57,1.205h6.995c2.426,0,3.7-0.277,4.572-1.205c0.558-0.617,0.904-1.262,0.904-3.131v-5.187
					c0-1.868-0.346-2.513-0.904-3.131C56.42,19.359,55.146,19.079,52.72,19.079z M54.337,28.058c0,0.786-0.085,1.027-0.301,1.214
					c-0.218,0.192-0.557,0.245-1.491,0.245h-6.647c-0.936,0-1.264-0.053-1.495-0.245c-0.203-0.187-0.294-0.428-0.294-1.214v-4.106
					c0-0.795,0.091-1.026,0.294-1.211c0.23-0.201,0.559-0.251,1.495-0.251h6.647c0.934,0,1.273,0.05,1.491,0.251
					c0.216,0.185,0.301,0.416,0.301,1.211V28.058z M59.869,19.301v13.454h4.278v-7.015v-6.439H59.869z M77.016,19.301h-5.638
					l-7.23,6.439l7.807,7.015h6.048L69.4,25.592L77.016,19.301z M78.785,32.755h4.285V19.301h-4.285V32.755z M96.765,19.301h-5.321
					l-7.579,13.454h4.72l1.258-2.338h8.275l1.266,2.338h4.958L96.765,19.301z M91.325,27.496l2.658-4.876l2.653,4.876H91.325z"/>
			</g>
		</g>
	</g>
</g>
</svg>
