<svg width="406" height="534" viewBox="0 0 406 534" fill="none" xmlns="http://www.w3.org/2000/svg">
<path d="M405.858 468.355C405.858 485.973 398.644 496.214 384.535 501.662C329.7 522.79 264.767 533.667 203.015 533.667C141.233 533.667 76.3005 522.78 21.4752 501.662C7.36612 496.214 0.142273 485.973 0.142273 468.355V0.333374H405.858V468.355Z" fill="#005DAA"/>
<path d="M108.951 285.552C52.7717 250.48 34.24 234.954 32.6393 211.949C32.3725 207.29 33.4397 199.4 35.3996 193.776L30.1048 190.267C25.8772 197.019 23.1785 205.895 23.1785 214.032C23.1785 227.33 27.4164 237.386 32.6393 245.421C40.5301 257.57 48.8314 265.215 69.2921 280.565C91.3331 297.096 106.376 316.397 115.036 336.612H118.166V313.678C147.934 330.588 174.202 346.473 187.121 374.896H190.24C185.181 345.446 168.517 322.739 108.951 285.552V285.552ZM367.717 374.937H363.879C363.879 353.984 344.66 348.248 324.538 348.248H261.617C263.648 358.591 264.582 370.689 263.033 382.12H259.893C254.075 335.001 227.457 311.687 190.23 286.681V308.147H187.1C177.198 286.004 155.475 265.256 134.912 250.521C129.443 246.621 123.748 242.579 118.135 238.587V261.685H115.006C106.284 238.761 90.4506 221.656 67.8658 201.267C43.4546 179.308 33.6346 166.164 27.9089 151.049C24.4407 141.896 23.4761 134.498 23.3427 124.452C23.1272 106.485 32.2289 90.2518 43.5366 84.1977V92.8992C37.9341 100.318 35.0302 109.748 35.0096 119.301C34.9788 128.136 37.0926 137.946 41.4844 146.298C55.2241 172.444 101.502 204.54 130.869 224.273C222.245 285.552 240.489 296.244 255.655 328.762C257.348 332.384 259.031 337.248 260.437 342.922C273.633 340.88 321.521 333.574 330.336 332.179C332.049 331.902 335.569 331.481 337.395 331.358C345.656 326.145 352.079 319.496 357.712 311.205L322.722 308.486C320.906 312.498 319.131 315.884 317.561 318.583H314.687C315.652 315.032 316.483 311.523 317.212 308.065L308.243 307.429V305.5L317.94 304.299C319.787 294.397 320.68 285.019 320.854 276.266L276.721 273.752C276.506 278.287 276.465 282.546 276.619 286.517H273.807C272.842 282.104 272.104 277.733 271.55 273.475L261.884 272.9V269.966L271.078 269.463C269.785 257.775 269.703 246.888 270.164 237.52L244.378 236.36C245.579 238.638 246.841 240.906 247.723 243.42C253.305 258.986 251.971 277.21 250.145 285.614H247.015C246.553 275.907 243.301 263.994 240.191 256.749C233.06 239.931 217.063 225.052 190.22 207.814V229.301H187.09C178.173 201.082 155.948 185.373 122.917 168.411C95.6633 154.425 87.1978 137.566 88.737 111.482L97.9515 116.941C100.301 141.322 119.038 155.42 138.668 155.277C150.222 155.174 161.047 153.635 171.493 151.562C186.598 148.494 200.573 145.919 212.24 150.033V135.637H203.067C199.783 138.459 193.134 141.732 183.355 141.906C172.612 142.091 152.274 135.904 152.274 113.175C152.274 93.4327 168.969 90.2723 182.565 90.2723C189.871 90.2723 201.979 90.0158 206.083 89.8003C209.111 89.5951 211.388 89.1436 212.876 87.666C214.416 86.1576 214.877 84.5979 215.226 82.5765C215.657 80.124 215.657 77.6306 215.657 73.3927V58.9656H152.623V83.9514L128.766 74.8703V68.8881H140.176V58.9656H97.6642V38.238H83.1755C75.4385 38.238 66.5011 43.6764 65.8546 54.1941C65.2698 64.2808 69.8052 72.7873 80.1997 72.7873H82.057V84.8647H80.1997C61.9862 84.8647 48.2773 71.1968 48.2773 53.0551C48.2773 34.1336 64.377 19.7269 83.863 19.7269H114.605V40.4647H234.199V71.1147C234.199 76.2864 233.901 83.2126 233.409 87.5839C233.039 90.7854 231.921 96.5214 225.887 101.139C222.224 103.909 216.724 105.028 207.818 105.069C204.893 105.079 196.417 104.946 186.259 104.31C172.632 103.437 168.753 108.712 168.199 113.596C168.086 114.622 168.086 115.617 168.22 116.572C174.602 111.646 183.632 108.147 193.873 111.39C211.912 117.064 217.073 117.557 226.472 110.179L227.427 112.282C226.401 113.852 224.605 116.11 221.968 118.111H230.679V165.333L257.81 149.058H333.989C333.989 149.058 366.168 165.876 371.452 168.647C376.131 171.11 377.968 174.085 378.686 178.446C379.312 182.089 378.348 186.707 376.572 189.662C375.454 191.509 366.701 205.844 362.094 213.498C375.033 227.505 383.766 247.104 383.766 268.929C383.766 288.713 376.449 314.222 352.674 333.184C363.141 336.612 369.841 342.317 375.105 349.818L367.717 374.937ZM197.885 120.656C187.182 118.306 181.21 119.629 175.064 125.489C178.081 126.925 181.847 127.705 186.002 127.428C192.026 126.997 195.74 123.406 197.885 120.656ZM191.718 188.697L221.865 170.627C215.934 167.703 209.388 165.825 201.63 165.733C191.236 165.548 173.699 170.309 165.234 171.633C169.02 174.208 182.462 182.807 191.718 188.697V188.697ZM326.272 190.616L330.449 184.726L323.984 176.117L325.061 174.198L343.234 183.998L339.263 196.024C342.208 197.44 344.907 199.205 348.488 201.585L360.247 182.274L329.802 166.369H262.561L207.972 199.205C218.212 206.326 227.673 214.022 234.373 221.779C248.985 200.487 274.689 186.932 300.147 186.932C308.469 186.943 318.156 187.835 326.272 190.616V190.616ZM320.803 266.836C320.434 256.79 319.192 247.699 317.499 239.685L281.862 238.074C279.43 248.92 277.809 259.499 277.07 269.165L320.803 266.836ZM332.788 240.393C333.927 249.597 334.071 258.206 333.465 266.159L368.774 264.312C367.888 256.467 365.656 248.834 362.176 241.747L332.788 240.393ZM314.811 228.839C311.117 216.084 306.715 207.229 304.395 203.063C302.906 202.976 301.414 202.934 299.922 202.94C297.428 202.94 294.935 203.258 292.523 203.514C288.963 212.431 286.059 221.43 283.699 230.563L314.811 228.839ZM324.6 207.434C327.237 214.525 329.217 221.358 330.664 227.956L352.233 226.776C344.753 218.154 335.262 211.51 324.6 207.434V207.434ZM364.3 298.502C366.824 292.355 368.435 286.455 368.918 278.985L332.224 276.902C330.551 287.184 327.822 296.121 324.887 303.437L364.3 298.502ZM273.807 208.881C261.524 214.381 253.049 221.861 245.476 232.594L270.595 231.281C271.498 220.127 272.966 212.708 273.807 208.881Z" fill="#FFD200"/>
<path d="M227.211 429.136C237.452 427.474 247.22 419.512 247.22 407.475C247.22 396.629 242.603 384.716 210.67 384.716H156.758V385.588C158.39 386.091 160.986 387.415 162.679 389.056C166.332 392.658 167.553 397.984 167.696 405.084V485.768H212.363C236.928 485.768 254.711 476.42 254.711 454.923C254.721 437.468 241.125 430.05 227.211 429.136V429.136ZM204.226 394.331C215.657 394.331 223.404 396.824 223.404 409.014C223.404 422.025 213.03 425.607 201.179 425.607H190.969V394.331H204.226ZM205.386 476.225H190.969V434.955H204.729C223.63 434.955 230.874 440.608 230.874 454.759C230.864 470.058 221.393 476.225 205.386 476.225ZM117.006 485.747H146.117L108.951 438.248C123.84 434.257 134.994 426.099 134.994 411.292C134.994 393.92 124.579 384.706 97.3871 384.706H41.1355V385.578C43.2185 386.296 45.5273 387.64 47.0562 389.128C50.9862 393.017 52.1662 398.948 52.1662 406.952V485.747H75.5103V440.978H84.0271L117.006 485.747ZM75.5206 394.331H91.2304C104.334 394.331 111.168 398.168 111.168 412.062C111.168 424.478 102.241 431.845 87.8853 431.845H75.5206V394.331ZM349.124 398.569C355.352 402.078 357.261 406.726 357.312 406.767C357.6 407.106 358.277 406.993 358.277 406.993L363.356 389.703C363.356 389.703 354.234 383.146 332.521 383.146C299.665 383.146 275.069 399.697 275.069 435.919C275.069 476.728 304.365 487.327 330.213 487.327C354.234 487.327 363.695 479.673 363.695 479.673V467.831C363.695 467.831 355.188 475.753 336.975 475.753C321.963 475.753 299.86 468.878 299.419 435.344C298.967 404.346 312.481 394.259 330.561 394.259C340.658 394.259 345.697 396.629 349.124 398.569" fill="white"/>
</svg>
